<?xml version="1.0" standalone="no"?>
<!DOCTYPE svg PUBLIC "-//W3C//DTD SVG 20010904//EN"
 "http://www.w3.org/TR/2001/REC-SVG-20010904/DTD/svg10.dtd">
<svg version="1.0" xmlns="http://www.w3.org/2000/svg"
 width="512.000000pt" height="512.000000pt" viewBox="0 0 512.000000 512.000000"
 preserveAspectRatio="xMidYMid meet">
<metadata>
Created by potrace 1.11, written by Peter Selinger 2001-2013
</metadata>
<g transform="translate(0.000000,512.000000) scale(0.100000,-0.100000)"
fill="#000000" stroke="none">
<path d="M1355 4355 c-695 -264 -1175 -451 -1182 -461 -9 -12 -13 -56 -13
-136 0 -162 -4 -158 180 -158 l140 0 0 -86 c0 -84 1 -87 34 -120 l34 -34 2012
0 2012 0 34 34 c33 33 34 36 34 120 l0 86 140 0 c184 0 180 -4 180 160 0 101
-3 123 -18 138 -25 25 -2342 902 -2384 902 -19 -1 -531 -190 -1203 -445z"/>
<path d="M960 2240 l0 -960 -206 0 -206 0 -34 -34 -34 -34 0 -126 0 -126 2080
0 2080 0 0 126 0 126 -34 34 -34 34 -206 0 -206 0 0 960 0 960 -320 0 -320 0
0 -960 0 -960 -320 0 -320 0 0 960 0 960 -320 0 -320 0 0 -960 0 -960 -320 0
-320 0 0 960 0 960 -320 0 -320 0 0 -960z"/>
<path d="M295 781 c-22 -10 -54 -34 -72 -52 -53 -57 -63 -93 -63 -239 0 -117
2 -132 20 -150 20 -20 33 -20 2380 -20 2347 0 2360 0 2380 20 18 18 20 33 20
153 0 149 -12 187 -71 244 -72 68 124 63 -2331 63 -2144 0 -2224 -1 -2263 -19z"/>
</g>
</svg>
